<svg xmlns="http://www.w3.org/2000/svg" fill="none" viewBox="0 0 24 24" stroke-width="1.5" stroke="#3b82f6">
  <path stroke-linecap="round" stroke-linejoin="round" d="M19.5 14.25v-2.625a3.375 3.375 0 0 0-3.375-3.375h-1.5A1.125 1.125 0 0 1 13.5 7.125v-1.5a3.375 3.375 0 0 0-3.375-3.375H9.75m0 0v-.75c0-.621.504-1.125 1.125-1.125h2.25c.621 0 1.125.504 1.125 1.125v.75m0 0v3.75a3.375 3.375 0 0 1-3.375 3.375H9.75m-1.5 0H15m0 0v2.625c0 .621-.504 1.125-1.125 1.125h-2.25A1.125 1.125 0 0 1 6.75 18.75v-.75m0 0V8.625c0-.621.504-1.125 1.125-1.125h2.25A1.125 1.125 0 0 1 12 6.375V7.5m0 0v1.5" />
</svg>